<svg id="Capa_1" enable-background="new 0 0 209.513 209.513" height="512" viewBox="0 0 209.513 209.513" width="512" xmlns="http://www.w3.org/2000/svg">
<path d="m209.513 104.756c0-4.965-1.76-9.777-5.227-14.348 1.072-1.976 1.735-4.201 1.735-6.603 0-7.703-6.264-13.968-13.968-13.968-3.96 0-7.521 1.676-10.067 4.333-4.941-2.277-10.399-4.305-16.272-6.072 2.853-15.322 2.891-28.923-.325-39.043-2.462-7.752-6.663-13.189-12.48-16.164-12.609-6.446-30.296.468-48.156 16.789-17.861-16.313-35.541-23.224-48.15-16.788-4.843 2.476-8.573 6.694-11.111 12.56-.035 0-.066-.01-.098-.01-7.703 0-13.968 6.205-13.968 13.831 0 6.429 4.47 11.796 10.479 13.342.279 4.917.883 10.067 1.889 15.455-26.666 8.053-43.794 21.353-43.794 36.686s17.124 28.633 43.795 36.686c-2.846 15.308-2.884 28.899.328 39.015 2.465 7.752 6.662 13.189 12.48 16.164 3.164 1.617 6.642 2.392 10.364 2.392 11.125 0 24.405-6.987 37.789-19.212 13.381 12.225 26.664 19.212 37.789 19.212 3.719 0 7.2-.779 10.364-2.392 5.814-2.972 9.973-8.401 12.431-16.118 7.123-.625 12.745-6.495 12.745-13.709 0-6.516-4.588-11.963-10.727-13.419-.346-3.862-.88-7.839-1.634-11.935 26.664-8.054 43.789-21.351 43.789-36.684zm-30.949-24.496c-.028.108-.038.216-.066.325-.066.279-.122.559-.171.845-.143.786-.241 1.578-.241 2.374 0 7.022 5.458 13.122 12.445 13.884 1.603.175 3.237.045 4.801-.342.297-.073 4.26-1.508 4.11-1.728 2.05 3.013 3.087 6.076 3.087 9.135 0 11.939-15.162 22.791-38.26 29.789-2.224-9.578-5.437-19.589-9.603-29.768 4.18-10.235 7.382-20.284 9.606-29.814 5.122 1.568 9.938 3.324 14.292 5.3zm-73.808 89.805c-5.933-6.027-11.876-13.126-17.589-21.073 5.709.398 11.576.615 17.585.615 6.01 0 11.879-.216 17.589-.615-5.709 7.947-11.652 15.046-17.585 21.073zm0-27.443c-7.787 0-15.392-.384-22.708-1.089-3.995-6.083-7.832-12.564-11.411-19.383-3.024-5.765-5.755-11.579-8.206-17.365 2.448-5.807 5.168-11.642 8.206-17.428 3.583-6.83 7.438-13.294 11.439-19.387 7.308-.702 14.9-1.086 22.68-1.086 7.748 0 15.347.395 22.711 1.093 3.995 6.083 7.829 12.56 11.408 19.38 3.013 5.741 5.755 11.558 8.209 17.358-2.448 5.807-5.171 11.645-8.209 17.435-3.576 6.82-7.417 13.297-11.408 19.383-7.319.705-14.924 1.089-22.711 1.089zm-31.685-2.134c-7.448-1.027-14.509-2.395-21.06-4.061 1.68-7.242 3.949-14.823 6.813-22.565 1.767 3.855 3.621 7.707 5.629 11.534 2.759 5.252 5.643 10.281 8.618 15.092zm-14.264-44.818c-2.87-7.731-5.126-15.298-6.809-22.578 6.551-1.666 13.618-3.038 21.073-4.065-2.975 4.808-5.859 9.84-8.614 15.092-2.019 3.845-3.887 7.7-5.65 11.551zm63.538-35.146c-5.762-.409-11.638-.622-17.592-.622-6.003 0-11.865.216-17.568.611 5.713-7.951 11.656-15.019 17.592-21.046 5.929 6.028 11.866 13.12 17.568 21.057zm14.083 8.472c7.417 1.013 14.456 2.402 21.07 4.096-1.676 7.239-3.946 14.816-6.809 22.551-1.767-3.841-3.618-7.689-5.632-11.527-2.76-5.263-5.651-10.302-8.629-15.12zm8.628 56.397c2.015-3.841 3.876-7.689 5.639-11.534 2.856 7.707 5.14 15.287 6.827 22.558-6.554 1.669-13.629 3.041-21.087 4.068 2.978-4.808 5.866-9.837 8.621-15.092zm4.676-106.282c4.096 2.095 7.127 6.149 9.002 12.061 2.818 8.869 2.752 21.119.206 35.037-8.517-2.158-17.756-3.785-27.432-4.847-6.942-10.291-14.278-19.296-21.667-26.772 11.837-10.825 23.336-17.166 32.467-17.166 2.696-.003 5.192.545 7.424 1.687zm-100.902 33.571c.52-.133 1.016-.328 1.512-.517 4.016-1.515 7.225-4.903 8.436-9.044 1.641-5.608-.562-11.82-5.36-15.137-.175-.122-.356-.234-.534-.349-.185-.115-.356-.248-.548-.356 1.847-3.841 4.344-6.582 7.448-8.167 9.798-5.014 24.569 1.4 39.919 15.445-7.385 7.473-14.725 16.478-21.667 26.769-9.823 1.069-19.045 2.72-27.471 4.861-.848-4.678-1.473-9.224-1.735-13.505zm-41.846 52.074c0-11.939 15.162-22.791 38.26-29.789 2.231 9.564 5.461 19.607 9.606 29.765-4.18 10.235-7.385 20.284-9.606 29.814-23.099-7.002-38.26-17.851-38.26-29.79zm52.797 85.645c-4.096-2.095-7.127-6.149-9.002-12.061-2.814-8.862-2.752-21.101-.21-35.013 8.429 2.141 17.648 3.792 27.471 4.861 6.945 10.294 14.285 19.282 21.674 26.755-15.354 14.055-30.128 20.473-39.933 15.458zm100.636-36.947c-.402.108-.775.276-1.159.419-4.616 1.711-8.14 5.884-8.904 10.779-.754 4.826 1.261 9.865 5.081 12.885.904.719 1.875 1.351 2.944 1.83-1.889 5.357-4.787 9.061-8.646 11.031-9.805 5.014-24.579-1.407-39.933-15.459 7.389-7.473 14.729-16.461 21.674-26.755 9.823-1.069 19.045-2.717 27.471-4.861.627 3.475 1.161 6.88 1.472 10.131z"/>
<path d="m104.756 76.821c-15.403 0-27.935 12.532-27.935 27.935s12.532 27.935 27.935 27.935 27.935-12.532 27.935-27.935-12.532-27.935-27.935-27.935zm10.476 31.427h-6.984v6.984c0 1.928-1.564 3.492-3.492 3.492s-3.492-1.564-3.492-3.492v-6.984h-6.984c-1.928 0-3.492-1.564-3.492-3.492s1.564-3.492 3.492-3.492h6.984v-6.984c0-1.928 1.564-3.492 3.492-3.492s3.492 1.564 3.492 3.492v6.984h6.984c1.928 0 3.492 1.564 3.492 3.492s-1.565 3.492-3.492 3.492z"/>
</svg>
