<svg id="Layer_1" enable-background="new 0 0 59.826 60.001" height="512" viewBox="0 0 59.826 60.001" width="512" xmlns="http://www.w3.org/2000/svg">
<path d="m58.572 11.65c-1.291-1.188-3.115-1.416-4.648-.582-2.621 1.427-7.33 2.61-11.451 2.877-1.89.122-3.767.05-5.613-.183v-2.843c3.387-.488 6-3.401 6-6.92 0-.552-.448-1-1-1s-1 .448-1 1c0 2.414-1.721 4.434-4 4.899v-5.899c0-1.654-1.346-3-3-3s-3 1.346-3 3v2.11c-1.272-1.3-3.042-2.11-5-2.11-.552 0-1 .448-1 1s.448 1 1 1c2.757 0 5 2.243 5 5v2.692c-2.547-.409-5.415-.748-7.467-.855-1.72-.091-3.325-.083-4.826.017-1.898-3.577-5.633-5.854-9.707-5.854h-1c-1.654 0-3 1.346-3 3s1.346 3 3 3h1c1.156 0 2.259.416 3.141 1.14-2.73.993-4.883 2.525-6.479 4.621-1.304 1.712-2.35 3.775-3.29 6.492-.146.421-.284.844-.413 1.267-2.29 7.498-1.953 14.966-1.322 21.284.144 1.439.428 2.848.703 4.21.308 1.525.598 2.966.711 4.452.197 2.603 1.43 4.509 2.931 4.534.037 0 .074.001.109.001 3.46 0 4.287-2.832 4.641-4.047.063-.214.11-.398.169-.524 2.044-4.294 5.572-5.767 8.171-6.247 2.523-.465 5.1-1.362 7.658-2.664.091-.046.177-.098.268-.145v10.625c0 1.654 1.346 3 3 3s3-1.346 3-3v-14.117c1.068-.69 2.103-1.395 3.106-2.109 1.816 3.769 5.64 6.227 9.894 6.227h2c1.654 0 3-1.346 3-3s-1.346-3-3-3h-2c-2.427 0-4.434-1.71-4.884-4.042 5.413-4.431 9.292-8.563 10.837-10.291 1.012-1.131 2.08-2.208 2.897-3.021 2.933-2.913 4.886-5.441 5.804-7.516.691-1.559.321-3.317-.94-4.479zm-52.657 16.022c.743-2.147 2.592-5.579 3.584-6.882 1.997-2.622 5.5-3.791 11.361-3.791.552 0 1 .448 1 1s-.448 1-1 1c-5.175 0-8.188.926-9.77 3.002-.887 1.164-2.611 4.375-3.286 6.325-.143.414-.53.673-.945.673-.108 0-.219-.018-.327-.056-.521-.179-.798-.749-.617-1.271zm17.398 14.218c-1.744.888-4.034 1.959-6.287 2.375-1.71.315-6.05 1.472-9.408 5.385-.193.225-.471.349-.759.349-.085 0-.17-.011-.255-.033-.371-.098-.653-.398-.727-.774-.017-.087-.05-.232-.093-.426-.457-2.041-1.848-8.251-.906-12.962.108-.541.636-.893 1.176-.784.542.108.893.635.785 1.177-.519 2.593-.315 6.206.603 10.752 3.515-3.284 7.523-4.336 9.221-4.649 1.999-.369 4.119-1.365 5.743-2.19.492-.251 1.094-.055 1.345.438.25.49.055 1.092-.438 1.342zm16.044-6.201c-.028-.015-.051-.036-.081-.048-.164-.069-.904-.51-1.656-.92 3.387-6.634-.372-11.867-.562-12.124-.328-.443-.237-1.069.205-1.398.441-.33 1.065-.24 1.396.201.056.073 4.709 6.472.698 14.289z"/>
</svg>
