 <svg version="1.0" xmlns="http://www.w3.org/2000/svg" width="700.000000pt" height="700.000000pt" viewBox="0 0 700.000000 700.000000" preserveAspectRatio="xMidYMid meet">
<metadata>
Created by potrace 1.12, written by Peter Selinger 2001-2015
</metadata>
<g transform="translate(0.000000,700.000000) scale(0.100000,-0.100000)" fill="#000000" stroke="none">
<path d="M3176 5999 c-101 -8 -333 -43 -396 -59 -19 -5 -69 -17 -110 -26 -111
-25 -343 -98 -477 -150 -838 -327 -1561 -977 -2035 -1829 -194 -347 -204 -489 -56 -772 553 -1063 1484 -1823 2551 -2082 210 -51 475 -91 603 -91 57 0 93 30 101 86 4 35 1 46 -24 74 -28 31 -32 33 -153 45 -341 36 -643 110 -960 236 -224 89 -550 272 -767 433 -143 105 -383 313 -383 331 0 3 35 -18 77 -48 190 -130 449 -271 678 -369 1087 -462 2328 -451 3415 29 171 75 430 220 604 336 48 32 84 52 80 45 -15 -24 -202 -188 -314 -274 -375 -288 -764 -486 -1200 -609 -181 -51 -438 -98 -605 -111 -111 -8 -151 -28 -161 -81 -9 -46 4 -81 39 -106 26 -20 32 -21 170 -9 570 48 1155 262 1682 615 555 372 1070 963 1373 1577 140 284 123 415 -111 820 -300 521 -712 976 -1205 1328 -514 368 -1167 610 -1787 662 -139 11 -485 11 -629 -1z m784 -218 c582 -90 1063 -286 1550 -631 85 -61 273 -215 341 -280 84 -81 81 -80 -56 11 -523 345 -1099 551 -1805 646 -193 26 -784 26 -980 0 -699 -91 -1285 -301 -1805 -646 -139 -92 -140 -92 -45 0 218 210 595 464 895 604 333 155 661 252 1015 299 172 24 183 24 480 21 217 -3 304 -8 410 -24z m-53 -450 c329 -34 396 -53 588 -169 426 -257 740 -668 875 -1147 6 -22 24 -104 39 -183 34 -168 48 -192 117 -192 31 0 51 7 71 24 25 22 28 30 26 85 -1 33 -9 97 -18 143 -85 431 -276 795 -584 1110 -41 43 -73 79 -70 82 8 8 317 -131 456 -206 530 -285 983 -696 1295 -1174 89 -136 88 -134 88 -210 0 -66 -1 -70 -67 -173 -285 -447 -682 -829 -1159 -1117 -190 -114 -593 -308 -609 -292 -2 2 35 44 82 93 167 176 285 345 388 557 103 212 193 519 198 674 2 53 -1 66 -22 88 -31 33 -70 41 -115 22 -43 -18 -50 -33 -71 -156 -48 -284 -154 -554 -308 -780 -179 -265 -423 -483 -709 -635 -121 -63 -174 -77 -414 -107 -238 -30 -721 -32 -939 -5 -278 35 -308 43 -444 114 -209 107 -350 212 -506 374 -272 283 -435 611 -512 1029 -13 72 -17 149 -17 320 0 194 3 241 22 340 87 436 256 756 553 1046 216 210 484 373 674 409 287 55 756 70 1092 36z m-1940 -339 c-397 -402 -608 -921 -608 -1497 0 -246 28 -428 103 -665 48 -156 136 -340 236 -495 88 -136 134 -195 253 -319 55 -58 97 -106 92 -106 -10 0 -99 35 -173 67 -646 285 -1187 732 -1561 1291 -153 229 -151 244 66 552 188 268 529 609 793 793 28 20 74 52 101 71 102 72 312 193 456 262 157 76 317 144 324 138 3 -2 -34 -43 -82 -92z"></path>
<path d="M3296 5178 c-60 -5 -114 -12 -120 -17 -6 -5 -46 -15 -88 -21 -43 -7 -78 -16 -78 -20 0 -4 -17 -11 -37 -15 -21 -4 -42 -10 -48 -14 -5 -4 -28 -13 -50 -20 -33 -11 -133 -58 -246 -116 -10 -5 -19 -13 -19 -17 0 -5 -6 -8 -13 -8 -7 0 -28 -13 -47 -30 -19 -16 -38 -29 -42 -30 -5 0 -16 -7 -25 -15 -10 -8 -54 -46 -98 -83 -85 -73 -225 -222 -225 -240 0 -6 -9 -16 -20 -22 -11 -6 -20 -15 -20 -21 0 -6 -11 -25 -25 -43 -14 -18 -25 -38 -25 -44 0 -6 -4 -12 -9 -14 -11 -3 -131 -234 -131 -252 -1 -6 -9 -29 -20 -51 -11 -22 -19 -48 -20 -57 0 -9 -4 -19 -8 -22 -5 -3 -15 -38 -22 -78 -7 -40 -17 -77 -21 -83 -12 -17 -29 -221 -29 -356 0 -137 16 -327 29 -344 5 -5 14 -41 21 -79 7 -38 19 -81 26 -95 8 -14 14 -34 14 -43 0 -9 4 -19 9 -22 5 -3 12 -18 16 -33 12 -49 116 -252 157 -305 14 -18 32 -47 41 -63 8 -17 64 -81 123 -143 90 -96 146 -147 274 -254 8 -7 26 -19 40 -26 14 -7 39 -21 55 -32 17 -11 77 -42 135 -70 149 -73 161 -79 195 -86 17 -4 35 -10 40 -14 6 -4 39 -13 75 -20 36 -7 70 -16 75 -20 49 -37 671 -37 720 -1 5 4 42 13 80 21 39 7 75 16 80 20 6 4 25 11 43 15 17 3 32 10 32 15 0 4 15 11 33 14 69 13 387 192 387 218 0 4 7 8 16 8 21 0 324 303 324 324 0 9 4 16 8 16 10 0 72 93 72 108 0 6 3 12 8 14 10 4 54 75 76 123 10 22 27 57 37 77 11 20 19 43 19 50 1 7 9 31 20 53 11 22 19 48 20 57 0 9 4 19 9 22 4 3 14 40 21 83 7 43 17 80 21 83 10 7 29 230 29 342 0 113 -17 303 -29 326 -5 9 -15 50 -21 90 -7 39 -15 72 -20 72 -4 0 -11 17 -15 38 -4 20 -10 42 -14 47 -4 6 -13 28 -20 50 -12 38 -88 197 -114 240 -7 11 -18 24 -24 28 -7 4 -13 14 -13 22 0 7 -11 27 -25 43 -14 17 -25 32 -25 35 0 17 -168 200 -253 274 -116 103 -116 103 -124 103 -3 0 -21 11 -39 25 -18 14 -37 25 -43 25 -5 0 -14 6 -18 13 -4 7 -19 18 -33 25 -14 7 -54 28 -90 47 -35 19 -72 35 -82 35 -10 0 -18 4 -18 8 0 5 -19 15 -42 22 -24 8 -47 17 -53 21 -5 4 -27 10 -47 14 -21 4 -38 11 -38 15 0 4 -37 13 -82 20 -46 7 -87 16 -93 20 -13 11 -248 30 -338 29 -40 -1 -121 -6 -181 -11z m346 -707 l33 -29 0 -545 c0 -522 -1 -546 -19 -566 -18 -19 -30 -21 -157 -21 -137 0 -138 0 -158 26 -21 26 -21 36 -21 561 l0 535 34 34 34 34 111 0 c108 0 111 -1 143 -29z m-59 -1676 c77 -43 112 -157 70 -222 -38 -58 -104 -103 -151 -103 -29 0 -122 40 -122 53 0 5 -11 23 -24 40 -36 48 -42 95 -17 149 45 99 150 135 244 83z"></path>
</g>
</svg>